<svg width="92" height="40" viewBox="0 0 92 40" fill="none" xmlns="http://www.w3.org/2000/svg">
<g clip-path="url(#clip0_1_26)">
<path d="M22.7547 17.2573C23.0343 17.201 23.3128 17.055 23.6391 16.7162L26.0593 14.141C26.3844 13.7567 26.5242 13.4108 26.5242 13.139C26.5242 12.4123 25.8729 11.9071 25.1749 12.0472C24.8952 12.1034 24.5701 12.3046 24.2905 12.5883L21.8702 15.1646C21.5439 15.5022 21.4053 15.8937 21.4053 16.2122C21.4053 16.8933 22.0567 17.3986 22.7547 17.2573Z" fill="black"/>
<path d="M32.3864 15.3215C32.6661 15.2652 32.9446 15.1192 33.2709 14.7804L35.6911 12.2052C36.0161 11.821 36.156 11.475 36.156 11.2032C36.156 10.4765 35.5046 9.97132 34.8067 10.1114C34.527 10.1677 34.2019 10.3688 33.9222 10.6525L31.502 13.2288C31.1757 13.5664 31.0371 13.9579 31.0371 14.2764C31.0371 14.9576 31.6885 15.4628 32.3864 15.3215Z" fill="black"/>
<path d="M91.0653 10.5194C90.739 10.5852 90.4139 10.7876 89.9944 11.2341C87.4344 14.3372 85.5735 16.5292 82.6884 18.744C83.1079 16.8429 83.4796 14.4976 83.3864 12.6085C83.2465 10.4104 83.2931 8.08554 84.0843 5.83724C84.2242 5.53675 84.2242 5.2638 84.1776 4.95612C84.1776 4.18394 83.4796 3.59733 82.7816 3.73859C82.2701 3.84155 81.8972 4.3707 81.6187 4.8807C79.9075 7.99814 77.8541 10.9013 75.6596 13.6512C74.6169 14.3839 73.0468 16.7818 72.2151 17.7443C72.1893 17.7743 72.1623 17.8042 72.1366 17.8341C72.0838 17.8928 72.0323 17.9479 71.9882 17.991C69.6612 20.3207 66.0781 24.1301 63.0065 24.7466C60.866 25.1764 59.2836 23.4513 58.4924 19.8861C63.0531 18.0604 70.9639 13.7458 73.5706 9.26954C73.757 8.95947 73.8956 8.61349 73.8956 8.34053C73.8956 7.75033 73.1044 7.22836 72.5929 7.33132C71.7551 7.50012 70.9639 8.92954 70.3125 9.56045C68.2186 11.889 65.2869 13.7051 62.6336 15.1465C61.4241 15.7534 60.26 16.2598 59.1437 16.7555C60.5863 13.7865 62.0755 10.8522 63.6579 7.89997C64.4957 6.41428 65.3335 4.97408 66.2633 3.56022C66.6362 2.94008 67.1477 2.3379 67.474 1.72734C67.6605 1.41727 67.7525 1.12636 67.7525 0.853404C67.7525 0.217704 67.1477 -0.11511 66.4032 0.0345365C65.9849 0.118339 65.5653 0.384111 65.1936 0.776785C63.4714 2.57614 59.9815 9.77235 58.7708 12.1056C57.3393 14.9022 55.9041 17.6965 54.4272 20.4356C51.7776 23.3639 48.0436 26.935 46.9065 27.1625C46.6734 27.2092 46.5336 27.1458 46.5336 26.874C46.5336 24.8304 50.5828 17.8844 52.4437 15.3308C52.8166 14.8017 52.9086 14.2833 52.9086 13.8296C52.9086 13.0574 52.3505 12.5342 51.5126 12.7018C51.233 12.7581 50.9079 12.8694 50.5816 13.1161C46.579 15.6469 40.6223 22.0673 37.2723 25.9653C37.877 24.0726 38.6216 22.8323 39.5526 20.9659C40.1574 19.6634 40.9952 18.6326 41.5067 17.3026C41.6466 17.0476 41.6932 16.7651 41.6932 16.5843C41.6932 15.9941 41.2283 15.769 40.6223 15.8911C40.0642 16.0036 39.4594 16.3975 39.0399 17.0727C37.9298 18.7703 36.6381 21.2413 35.6874 23.3256C35.2961 23.814 34.9109 24.3156 34.527 24.7921C32.5263 27.1481 27.4528 32.2553 25.6852 32.6109C25.2669 32.6492 25.0338 32.5151 25.0338 32.0147C25.0338 31.0042 25.917 29.2803 27.1191 27.3756C27.6957 26.6417 28.1643 25.9965 28.4783 25.508C28.6427 25.2877 28.7531 25.0615 28.8205 24.8388C29.819 23.4189 30.8605 22.023 31.7351 20.857C31.9682 20.5373 32.0602 20.2009 32.0602 19.8825C32.0602 19.2923 31.4554 18.7775 30.7574 18.9176C30.4324 18.9834 30.0595 19.2396 29.7332 19.6227C28.3838 21.2114 26.6616 23.9194 25.4987 25.6517C25.2693 25.9953 24.9786 26.4562 24.6683 26.9877C22.5388 29.4371 17.7597 34.2019 16.0522 34.5455C15.6339 34.5838 15.4008 34.4497 15.4008 33.9493C15.4008 32.8323 16.479 30.8402 17.8799 28.6973C17.9523 28.6027 18.0332 28.5022 18.1019 28.41C18.3975 28.0329 18.8612 27.3648 19.1618 26.8117C20.1689 25.3775 21.2213 23.9685 22.1033 22.7916C22.3364 22.472 22.4284 22.1356 22.4284 21.8171C22.4284 21.2269 21.8236 20.7121 21.1257 20.8522C20.8006 20.918 20.4277 21.1742 20.1014 21.5573C18.7521 23.146 17.0298 25.854 15.8669 27.5863C15.7026 27.8329 15.5063 28.1418 15.2953 28.489C11.5724 32.9437 7.29867 36.3484 4.32768 36.9458C2.93173 37.226 2.28037 34.4054 4.048 31.6878C7.86416 28.6949 20.1038 17.1505 20.1038 11.701C20.1038 10.6104 19.4991 8.91637 17.4052 9.33658C10.7039 10.687 2.69867 27.0572 0.558133 33.5734C0.278453 34.3563 0 35.775 0 37.1374C0 38.9535 1.02427 40.4284 3.72293 39.8861C6.64853 39.2983 9.98875 36.8872 12.8665 34.1935C12.8248 34.4629 12.7966 34.7263 12.7966 34.9741C12.7966 36.7914 14.0061 37.4558 15.6817 37.1194C17.6137 36.7303 20.1345 34.7909 22.4578 32.545C22.4394 32.7138 22.4284 32.879 22.4284 33.0382C22.4284 34.8556 23.6379 35.52 25.3135 35.1836C27.6711 34.7095 30.9022 31.9273 33.5837 29.0971C33.3347 29.837 32.898 30.9623 32.898 31.8878C32.898 32.6599 33.4095 33.2382 34.0142 33.1161C35.1305 32.891 36.7129 30.6211 37.179 29.9819C39.5993 26.4969 44.2532 21.4292 47.8829 18.2472C46.1153 21.4185 43.229 26.8584 43.229 29.4012C43.229 30.5816 44.16 30.9396 45.4627 30.6786C47.0917 30.3506 49.3562 28.6518 51.5421 26.5962C51.1262 27.7384 50.8122 28.75 50.8122 29.1043C50.8122 29.7855 51.3237 30.0465 51.9285 29.9244C52.44 29.8214 52.9994 29.4814 53.4177 28.8074C54.4419 27.1936 55.1865 24.1373 56.1629 22.3966C57.1872 25.3703 59.1879 28.1011 62.7244 27.3912C64.227 27.0895 65.8585 26.2024 67.4777 25.0148C67.5084 25.01 67.5305 25.016 67.5624 25.01C67.7954 24.9633 67.9806 24.8807 68.2603 24.7334C68.9583 24.2294 69.7495 23.662 70.4009 23.0311C71.7036 24.9944 73.286 25.9486 75.6596 25.4709C81.1514 24.3671 85.246 19.5018 88.1777 16.5496C89.1554 15.4913 91.9473 12.2493 91.9939 11.513C92.0405 10.8678 91.7142 10.3889 91.0628 10.5194H91.0653ZM14.4268 14.0714C15.3113 13.1663 15.916 12.5462 16.7072 12.387C16.9403 12.3403 17.0323 12.4576 17.0323 12.6851C17.0323 15.4098 10.0979 23.6165 6.00331 27.0284C7.58571 23.9852 10.937 17.7252 14.4268 14.0714ZM79.6168 19.8609C78.779 21.4831 77.4297 22.5259 75.754 22.8635C73.9852 23.219 73.0541 22.4073 72.3108 20.9671C75.6154 17.7599 77.9424 13.9313 80.7809 10.4535L80.8275 13.2142C80.8275 14.8951 80.6877 17.7384 79.6168 19.8609Z" fill="black"/>
</g>
<defs>
<clipPath id="clip0_1_26">
<rect width="92" height="40" fill="white"/>
</clipPath>
</defs>
</svg>
